Coordinates
version=1
nRows=7
nColumns=33
inDegrees=yes

Units are S.I. units (second, meters, Newtons, ...)
Angles are in degrees.

endheader
time	ground_thorax_rot_x	ground_thorax_rot_y	ground_thorax_rot_z	ground_thorax_tx	ground_thorax_ty	ground_thorax_tz	clav_prot_r	clav_elev_r	scapula_abduction_r	scapula_elevation_r	scapula_upward_rot_r	scapula_winging_r	shoulder_elv_r	plane_of_elev_r	axial_rot_r	elbow_flexion_r	pro_sup_r	wrist_flex_r	wrist_dev_r	clav_prot_l	clav_elev_l	scapula_abduction_l	scapula_elevation_l	scapula_upward_rot_l	scapula_winging_l	shoulder_elv_l	plane_of_elev_l	axial_rot_l	elbow_flexion_l	pro_sup_l	wrist_flex_l	wrist_dev_l
      4.93000000	    -40.19030100	     -7.82487880	      8.02331264	   -189.88496836	    849.77410597	     -7.36411289	      9.52889424	    -45.00000000	     33.15033040	    -45.00000000	    -45.00000000	   2421.86360498	  -1731.43001877	     29.09670313	     87.91001497	     13.59094359	     37.57249545	     18.30669837	      6.75601405	     15.25198839	     38.21242062	    -35.42073737	    -45.00000000	    -45.00000000	  -1716.82831289	  -1899.40753987	    141.62716728	    153.58481259	   1091.40774234	     41.42469451	      6.67088144	    -21.55438954
      4.94000000	    -40.16613114	     -7.77379016	      7.96190260	   -189.49542683	    850.07279423	     -7.35456541	      9.58394220	    -45.00000000	     33.24006636	    -45.00000000	    -45.00000000	   2421.67915985	  -1731.42009060	     29.32013753	     87.69357624	     13.69233994	     38.39400124	     18.16083936	      6.26300679	     15.29863932	     38.64547633	    -35.49245158	    -45.00000000	    -45.00000000	  -1716.72607889	  -1899.46857599	    141.48524960	    153.52227034	   1091.43309508	     42.01364106	      6.61167215	    -21.50752563
      4.95000000	    -40.21252371	     -7.80544601	      7.97531755	   -189.11751795	    850.42218353	     -7.35448503	      9.59277256	    -45.00000000	     33.17114329	    -45.00000000	    -45.00000000	   2421.95530708	  -1731.23353744	     29.20892251	     87.75600392	     13.83015403	     39.30100234	     18.37918671	      6.73198649	     15.31753656	     38.12112506	    -35.55180818	    -45.00000000	    -45.00000000	  -1716.73091567	  -1899.37446844	    141.60407805	    153.51789991	   1091.59128949	     42.56593882	      6.44334748	    -21.54937791
      4.96000000	    -40.18260722	     -7.70337616	      7.83505489	   -188.74431724	    850.83281541	     -7.36323446	      9.54894846	    -45.00000000	     33.46106858	    -45.00000000	    -45.00000000	   2421.58539336	  -1731.37066179	     29.53128065	     87.42094230	     13.92484073	     40.06832758	     17.99835829	      5.80810486	     15.31317431	     38.87662100	    -35.60890645	    -45.00000000	    -45.00000000	  -1716.64637455	  -1899.38356958	    141.41471269	    153.46025184	   1091.63332676	     43.14363982	      6.40954193	    -21.47867817
      4.97000000	    -40.25569594	     -7.75614605	      8.03030119	   -188.36214400	    851.32452802	     -7.38156093	      9.60704972	    -45.00000000	     33.16989155	    -45.00000000	    -45.00000000	   2421.83054235	  -1731.12330327	     29.33833387	     87.48556561	     14.11367239	     41.15870963	     18.27918489	      6.39582211	     15.34113953	     38.26220048	    -35.65924153	    -45.00000000	    -45.00000000	  -1716.71797203	  -1899.20656669	    141.50315089	    153.49781774	   1091.58894024	     43.80381696	      6.26530346	    -21.48507695
      4.98000000	    -40.29911598	     -7.64710852	      7.72638119	   -187.96843822	    851.91041987	     -7.40990833	      9.62320215	    -45.00000000	     33.56569224	    -45.00000000	    -44.96031729	   2421.69271634	  -1731.36750836	     29.57083452	     87.18100935	     14.05714577	     41.98743266	     18.04271973	      5.80251808	     15.33979117	     38.72922941	    -35.86462919	    -45.00000000	    -45.00000000	  -1716.46252895	  -1899.29289763	    141.39057859	    153.49608071	   1091.78997023	     44.33073162	      6.16878819	    -21.45489166
      4.99000000	    -40.31987537	     -7.71797000	      7.95754488	   -187.55038407	    852.61596547	     -7.44869110	      9.67400806	    -45.00000000	     33.37161420	    -45.00000000	    -45.00000000	   2421.88397052	  -1731.00375467	     29.36878631	     87.22410787	     14.32578765	     43.02871376	     18.29618947	      6.28010731	     15.32741422	     38.24753975	    -35.76927404	    -45.00000000	    -45.00000000	  -1716.65355424	  -1898.99496009	    141.44234687	    153.61678777	   1091.78924251	     44.91331109	      6.05394462	    -21.47693036
